<?xml version="1.0" encoding="UTF-8" standalone="no"?>
<svg
   xmlns:dc="http://purl.org/dc/elements/1.1/"
   xmlns:cc="http://creativecommons.org/ns#"
   xmlns:rdf="http://www.w3.org/1999/02/22-rdf-syntax-ns#"
   xmlns:svg="http://www.w3.org/2000/svg"
   xmlns="http://www.w3.org/2000/svg"
   xmlns:sodipodi="http://sodipodi.sourceforge.net/DTD/sodipodi-0.dtd"
   xmlns:inkscape="http://www.inkscape.org/namespaces/inkscape"
   inkscape:version="1.0 (4035a4fb49, 2020-05-01)"
   sodipodi:docname="zalo-seeklogo.com.svg"
   version="1.1"
   height="2372"
   width="2500"
   viewBox="0 0 460.1 436.6"
   id="Layer_1">
  <metadata
     id="metadata25">
    <rdf:RDF>
      <cc:Work
         rdf:about="">
        <dc:format>image/svg+xml</dc:format>
        <dc:type
           rdf:resource="http://purl.org/dc/dcmitype/StillImage" />
      </cc:Work>
    </rdf:RDF>
  </metadata>
  <defs
     id="defs23" />
  <sodipodi:namedview
     inkscape:current-layer="Layer_1"
     inkscape:window-maximized="1"
     inkscape:window-y="24"
     inkscape:window-x="0"
     inkscape:cy="1543.3433"
     inkscape:cx="1417.3838"
     inkscape:zoom="0.2802"
     showgrid="false"
     id="namedview21"
     inkscape:window-height="974"
     inkscape:window-width="1920"
     inkscape:pageshadow="2"
     inkscape:pageopacity="0"
     guidetolerance="10"
     gridtolerance="10"
     objecttolerance="10"
     borderopacity="1"
     bordercolor="#666666"
     pagecolor="#ffffff" />
  <style
     id="style2">.st0{fill:#fdfefe}.st1{fill:#0180c7}.st2{fill:#0172b1}.st3{fill:none;stroke:#0180c7;stroke-width:2;stroke-miterlimit:10}</style>
  <title
     id="title4">logo-zalo-vector</title>
  <rect
     inkscape:export-ydpi="96"
     inkscape:export-xdpi="96"
     ry="58.86832"
     y="8.5022583"
     x="8.7738304"
     height="420.06497"
     width="443.71173"
     id="rect41"
     style="fill:#0056ff;fill-opacity:1;fill-rule:evenodd;stroke-width:0.391306" />
  <a
     inkscape:export-ydpi="96"
     inkscape:export-xdpi="96"
     transform="matrix(1.0066735,0,0,1,-5.1045493,0)"
     id="a879">
    <path
       sodipodi:nodetypes="csssssssscssc"
       d="m 452.88578,299.51146 c -53.96706,58.81668 -139.51859,83.14539 -220.36511,62.31508 -8.19808,-2.11226 -13.56138,-3.59282 -21.28843,-6.54882 -11.47637,-4.39034 -22.48811,0.95819 -38.42493,5.57118 -16.90052,4.89196 -31.58118,7.96306 -49.15474,8.21454 -13.04733,0.18685 -23.32529,-2.05202 -23.60711,-4.02247 -0.463532,-3.241 12.66728,-6.56057 28.22457,-23.17082 11.48202,-12.25919 15.90747,-24.4201 7.3097,-32.76858 C 106.25065,280.62292 86.031573,244.59554 79.423993,204.1096 66.895567,127.34539 104.57345,51.679727 175.25092,10.202154 l 219.29705,0.327359 c 28.31435,0.04227 58.43884,20.441469 58.42252,63.828549 z"
       style="fill:#ffffff;fill-opacity:1;stroke-width:0.751985"
       id="path875" />
  </a>
  <g
     inkscape:export-ydpi="96"
     inkscape:export-xdpi="96"
     transform="translate(2.5034445,-0.80319111)"
     id="g931">
    <path
       class="st1"
       d="m 181.36404,213.37581 c 12.63441,0 24.51574,-0.0838 36.31342,0 6.61007,0.0838 10.20792,2.84481 10.87729,8.11612 0.75307,6.61006 -3.09582,11.04464 -10.29157,11.12832 -13.55481,0.16729 -27.0259,0.0838 -40.58068,0.0838 -3.93257,0 -7.78146,0.16729 -11.714,-0.0838 -4.85298,-0.2511 -9.62224,-1.25509 -11.96505,-6.27538 -2.34281,-5.02027 -0.66936,-9.53853 2.51014,-13.63843 12.88541,-16.39962 25.8545,-32.88292 38.82359,-49.28254 0.75304,-1.00405 1.50608,-2.00809 2.25912,-2.92849 -0.83672,-1.42241 -2.00812,-0.75305 -3.01217,-0.83673 -9.03651,-0.0838 -18.15671,0 -27.19323,-0.0838 -2.0918,0 -4.18357,-0.2511 -6.1917,-0.66936 -4.76926,-1.08773 -7.69779,-5.85699 -6.61006,-10.5426 0.75307,-3.17953 3.26321,-5.77334 6.44274,-6.52639 2.00809,-0.502 4.09989,-0.75304 6.19167,-0.75304 14.89353,-0.0838 29.87071,-0.0838 44.76425,0 2.67749,-0.0838 5.2713,0.2511 7.86511,0.9204 5.6897,1.92445 8.11615,7.19575 5.85702,12.71805 -2.00812,4.7693 -5.18762,8.8692 -8.36715,12.96909 -10.96096,13.97314 -21.92193,27.86263 -32.88289,41.66841 -0.9204,1.08772 -1.75712,2.17545 -3.09585,4.01625 z"
       id="path12"
       style="fill:#0056ff;fill-opacity:1;stroke-width:0.836715" />
    <path
       class="st1"
       d="m 278.42298,169.3646 c 2.00813,-2.59381 4.0999,-5.0203 7.53043,-5.68967 6.61006,-1.33876 12.80177,2.9285 12.88541,9.62221 0.2511,16.7343 0.16729,33.46861 0,50.20291 0,4.35093 -2.84481,8.1998 -6.94471,9.45488 -4.18358,1.58976 -8.95287,0.33468 -11.71404,-3.26318 -1.42241,-1.75712 -2.00809,-2.0918 -4.01622,-0.50204 -7.61411,6.19171 -16.23226,7.27943 -25.51982,4.26726 -14.8935,-4.85294 -21.00152,-16.4833 -22.67497,-30.6238 -1.75709,-15.31186 3.34686,-28.36463 17.06899,-36.3971 11.37932,-6.77739 22.92601,-6.19167 33.38493,2.92853 z m -29.61972,30.54008 c 0.1673,3.68154 1.33877,7.19575 3.51422,10.12427 4.51826,6.02435 13.13641,7.2794 19.24443,2.76114 1.00405,-0.75304 1.92445,-1.67341 2.76117,-2.76114 4.68562,-6.35905 4.68562,-16.81798 0,-23.17701 -2.34281,-3.2632 -6.02434,-5.18765 -9.95691,-5.27133 -9.20388,-0.58568 -15.64658,6.52638 -15.56291,18.32407 z m 87.60407,0.50204 c -0.66937,-21.50357 13.47113,-37.56851 33.55229,-38.15423 21.33624,-0.66936 36.89914,13.63846 37.5685,34.55634 0.66937,21.16888 -12.29972,36.1461 -32.2972,38.15422 -21.83828,2.17545 -39.15827,-13.63845 -38.82359,-34.55633 z m 21.00156,-2.00813 c -0.16729,4.18358 1.08772,8.28348 3.59789,11.71401 4.6019,6.02435 13.22009,7.19575 19.24444,2.51017 0.92036,-0.6694 1.67341,-1.50609 2.42645,-2.34281 4.85294,-6.35903 4.85294,-17.06899 0.0838,-23.42802 -2.34278,-3.17952 -6.02435,-5.18765 -9.95689,-5.27133 -9.03654,-0.50201 -15.39557,6.35906 -15.39557,16.81798 z m -28.36463,-14.6425 c 0,12.96909 0.0838,25.93815 0,38.90724 0.0838,5.9407 -4.60194,10.87732 -10.54264,11.04464 -1.00405,0 -2.09177,-0.0838 -3.09582,-0.33468 -4.18357,-1.08773 -7.3631,-5.52231 -7.3631,-10.79364 v -66.51882 c 0,-3.93258 -0.0838,-7.78147 0,-11.71401 0.0838,-6.44271 4.18357,-10.62628 10.37527,-10.62628 6.35903,-0.0838 10.62629,4.09989 10.62629,10.7936 0.0838,13.05277 0,26.18919 0,39.24195 z"
       id="path14"
       style="fill:#0056ff;fill-opacity:1;stroke-width:0.836715" />
  </g>
</svg>
